<?xml version="1.0" encoding="utf-8"?>
<!-- Generator: Adobe Illustrator 27.5.0, SVG Export Plug-In . SVG Version: 6.00 Build 0)  -->
<svg version="1.1" xmlns="http://www.w3.org/2000/svg" xmlns:xlink="http://www.w3.org/1999/xlink" x="0px" y="0px"
	 viewBox="0 0 2000 2000" style="enable-background:new 0 0 2000 2000;" xml:space="preserve">
<g id="bg">
	<rect style="fill:#3C4A59;" width="2000" height="2000"/>
</g>
<g id="pix">
	<g>
		<g id="XMLID_1_">
			<g>
				<rect x="580.15" y="1090.65" style="fill:none;" width="42.89" height="42.9"/>
				<rect x="580.15" y="1090.65" style="fill:none;" width="42.89" height="42.9"/>
				<rect x="580.15" y="1090.65" style="fill:none;" width="42.89" height="42.9"/>
				<rect x="1395.09" y="1133.55" style="fill:#CCCCCC;" width="42.89" height="42.89"/>
				<rect x="1395.09" y="1090.65" style="fill:#601111;" width="42.89" height="42.9"/>
				<rect x="1352.19" y="1176.44" style="fill:#CCCCCC;" width="42.9" height="42.88"/>
				<rect x="1352.19" y="1133.55" style="fill:#CCCCCC;" width="42.9" height="42.89"/>
				<rect x="1352.19" y="1090.65" style="fill:#601111;" width="42.9" height="42.9"/>
				<rect x="1352.19" y="1047.76" style="fill:#9B1616;" width="42.9" height="42.89"/>
				<rect x="1352.19" y="1004.87" style="fill:#9B1616;" width="42.9" height="42.89"/>
				<rect x="1352.19" y="961.97" style="fill:#9B1616;" width="42.9" height="42.9"/>
				<rect x="1309.3" y="1176.44" style="fill:#CCCCCC;" width="42.89" height="42.88"/>
				<rect x="1309.3" y="1133.55" style="fill:#CCCCCC;" width="42.89" height="42.89"/>
				<rect x="1309.3" y="1090.65" style="fill:#601111;" width="42.89" height="42.9"/>
				<rect x="1309.3" y="1047.76" style="fill:#9B1616;" width="42.89" height="42.89"/>
				<rect x="1309.3" y="1004.87" style="fill:#9B1616;" width="42.89" height="42.89"/>
				<rect x="1309.3" y="961.97" style="fill:#9B1616;" width="42.89" height="42.9"/>
				<rect x="1309.3" y="919.09" style="fill:#9B1616;" width="42.89" height="42.88"/>
				<rect x="1309.3" y="876.2" style="fill:#9B1616;" width="42.89" height="42.89"/>
				<rect x="1266.41" y="1176.44" style="fill:#CCCCCC;" width="42.89" height="42.88"/>
				<rect x="1266.41" y="1133.55" style="fill:#CCCCCC;" width="42.89" height="42.89"/>
				<rect x="1266.41" y="1090.65" style="fill:#601111;" width="42.89" height="42.9"/>
				<rect x="1266.41" y="1047.76" style="fill:#9B1616;" width="42.89" height="42.89"/>
				<rect x="1266.41" y="1004.87" style="fill:#9B1616;" width="42.89" height="42.89"/>
				<rect x="1266.41" y="961.97" style="fill:#9B1616;" width="42.89" height="42.9"/>
				<rect x="1266.41" y="919.09" style="fill:#9B1616;" width="42.89" height="42.88"/>
				<rect x="1266.41" y="876.2" style="fill:#DB1D1D;" width="42.89" height="42.89"/>
				<rect x="1266.41" y="833.3" style="fill:#9B1616;" width="42.89" height="42.9"/>
				<rect x="1223.51" y="1176.44" style="fill:#CCCCCC;" width="42.9" height="42.88"/>
				<rect x="1223.51" y="1133.55" style="fill:#CCCCCC;" width="42.9" height="42.89"/>
				<rect x="1223.51" y="1090.65" style="fill:#601111;" width="42.9" height="42.9"/>
				<rect x="1223.51" y="1047.76" style="fill:#7C1313;" width="42.9" height="42.89"/>
				<rect x="1223.51" y="1004.87" style="fill:#7C1313;" width="42.9" height="42.89"/>
				<rect x="1223.51" y="961.97" style="fill:#7C1313;" width="42.9" height="42.9"/>
				<polygon style="fill:#DB1D1D;" points="1266.41,919.09 1266.41,961.97 1223.51,961.97 1223.52,919.09 				"/>
				<rect x="1223.52" y="876.2" style="fill:#DB1D1D;" width="42.89" height="42.89"/>
				<rect x="1223.52" y="833.3" style="fill:#DB1D1D;" width="42.89" height="42.9"/>
				<rect x="1223.52" y="790.41" style="fill:#9B1616;" width="42.89" height="42.89"/>
				<rect x="1180.63" y="876.2" style="fill:#7C1313;" width="42.89" height="42.89"/>
				<rect x="1180.63" y="833.3" style="fill:#DB1D1D;" width="42.89" height="42.9"/>
				<rect x="1180.63" y="790.41" style="fill:#9B1616;" width="42.89" height="42.89"/>
				<polygon style="fill:#7C1313;" points="1223.52,919.09 1223.51,961.97 1180.63,961.97 1180.63,919.09 				"/>
				<rect x="1180.63" y="1176.44" style="fill:#CCCCCC;" width="42.88" height="42.88"/>
				<rect x="1180.63" y="1133.55" style="fill:#CCCCCC;" width="42.88" height="42.89"/>
				<rect x="1180.63" y="1090.65" style="fill:#601111;" width="42.88" height="42.9"/>
				<rect x="1180.63" y="1047.76" style="fill:#9B1616;" width="42.88" height="42.89"/>
				<rect x="1180.63" y="1004.87" style="fill:#9B1616;" width="42.88" height="42.89"/>
				<rect x="1180.63" y="961.97" style="fill:#9B1616;" width="42.88" height="42.9"/>
				<rect x="1137.74" y="1176.44" style="fill:#CCCCCC;" width="42.89" height="42.88"/>
				<rect x="1137.74" y="1133.55" style="fill:#CCCCCC;" width="42.89" height="42.89"/>
				<rect x="1137.74" y="1090.65" style="fill:#601111;" width="42.89" height="42.9"/>
				<rect x="1137.74" y="1047.76" style="fill:#9B1616;" width="42.89" height="42.89"/>
				<rect x="1137.74" y="1004.87" style="fill:#9B1616;" width="42.89" height="42.89"/>
				<rect x="1137.74" y="961.97" style="fill:#DB1D1D;" width="42.89" height="42.9"/>
				<rect x="1137.74" y="919.09" style="fill:#DB1D1D;" width="42.89" height="42.88"/>
				<rect x="1137.74" y="876.2" style="fill:#DB1D1D;" width="42.89" height="42.89"/>
				<rect x="1137.74" y="833.3" style="fill:#7C1313;" width="42.89" height="42.9"/>
				<rect x="1137.74" y="790.41" style="fill:#DB1D1D;" width="42.89" height="42.89"/>
				<rect x="1137.74" y="747.52" style="fill:#DB1D1D;" width="42.89" height="42.89"/>
				<rect x="1094.85" y="1176.44" style="fill:#FFFFFF;" width="42.89" height="42.88"/>
				<rect x="1094.85" y="1133.55" style="fill:#CCCCCC;" width="42.89" height="42.89"/>
				<rect x="1094.85" y="1090.65" style="fill:#601111;" width="42.89" height="42.9"/>
				<rect x="1094.85" y="1047.76" style="fill:#7C1313;" width="42.89" height="42.89"/>
				<rect x="1094.85" y="1004.87" style="fill:#7C1313;" width="42.89" height="42.89"/>
				<rect x="1094.85" y="961.97" style="fill:#7C1313;" width="42.89" height="42.9"/>
				<rect x="1094.85" y="919.09" style="fill:#DB1D1D;" width="42.89" height="42.88"/>
				<rect x="1094.85" y="876.2" style="fill:#DB1D1D;" width="42.89" height="42.89"/>
				<rect x="1094.85" y="833.3" style="fill:#DB1D1D;" width="42.89" height="42.9"/>
				<rect x="1094.85" y="790.41" style="fill:#7C1313;" width="42.89" height="42.89"/>
				<rect x="1094.85" y="747.52" style="fill:#DB1D1D;" width="42.89" height="42.89"/>
				<rect x="1094.85" y="704.63" style="fill:#8C8C8C;" width="42.89" height="42.89"/>
				<rect x="1051.95" y="1176.44" style="fill:#CCCCCC;" width="42.9" height="42.88"/>
				<rect x="1051.95" y="1133.55" style="fill:#CCCCCC;" width="42.9" height="42.89"/>
				<rect x="1051.95" y="1090.65" style="fill:#601111;" width="42.9" height="42.9"/>
				<rect x="1051.95" y="1047.76" style="fill:#9B1616;" width="42.9" height="42.89"/>
				<rect x="1051.95" y="1004.87" style="fill:#DB1D1D;" width="42.9" height="42.89"/>
				<rect x="1051.95" y="961.97" style="fill:#DB1D1D;" width="42.9" height="42.9"/>
				<rect x="1051.95" y="919.09" style="fill:#7C1313;" width="42.9" height="42.88"/>
				<rect x="1051.95" y="876.2" style="fill:#7C1313;" width="42.9" height="42.89"/>
				<rect x="1051.95" y="833.3" style="fill:#DB1D1D;" width="42.9" height="42.9"/>
				<rect x="1051.95" y="790.41" style="fill:#DB1D1D;" width="42.9" height="42.89"/>
				<rect x="1051.95" y="747.52" style="fill:#7C1313;" width="42.9" height="42.89"/>
				<rect x="1051.95" y="704.63" style="fill:#8C8C8C;" width="42.9" height="42.89"/>
				<rect x="1051.95" y="661.74" style="fill:#FFFFFF;" width="42.9" height="42.89"/>
				<rect x="1009.06" y="1176.44" style="fill:#FFFFFF;" width="42.89" height="42.88"/>
				<rect x="1009.06" y="1133.55" style="fill:#CCCCCC;" width="42.89" height="42.89"/>
				<rect x="1009.06" y="1090.65" style="fill:#601111;" width="42.89" height="42.9"/>
				<rect x="1009.06" y="1047.76" style="fill:#9B1616;" width="42.89" height="42.89"/>
				<rect x="1009.06" y="1004.87" style="fill:#DB1D1D;" width="42.89" height="42.89"/>
				<rect x="1009.06" y="961.97" style="fill:#DB1D1D;" width="42.89" height="42.9"/>
				<rect x="1009.06" y="919.09" style="fill:#DB1D1D;" width="42.89" height="42.88"/>
				<rect x="1009.06" y="876.2" style="fill:#DB1D1D;" width="42.89" height="42.89"/>
				<rect x="1009.06" y="833.3" style="fill:#7C1313;" width="42.89" height="42.9"/>
				<rect x="1009.06" y="790.41" style="fill:#7C1313;" width="42.89" height="42.89"/>
				<rect x="1009.06" y="747.52" style="fill:#7C1313;" width="42.89" height="42.89"/>
				<rect x="1009.06" y="704.63" style="fill:#8C8C8C;" width="42.89" height="42.89"/>
				<rect x="1009.06" y="661.74" style="fill:#FFFFFF;" width="42.89" height="42.89"/>
				<rect x="966.17" y="1176.44" style="fill:#FFFFFF;" width="42.89" height="42.88"/>
				<rect x="966.17" y="1133.55" style="fill:#CCCCCC;" width="42.89" height="42.89"/>
				<rect x="966.17" y="1090.65" style="fill:#601111;" width="42.89" height="42.9"/>
				<rect x="966.17" y="1047.76" style="fill:#9B1616;" width="42.89" height="42.89"/>
				<rect x="966.17" y="1004.87" style="fill:#DB1D1D;" width="42.89" height="42.89"/>
				<rect x="966.17" y="961.97" style="fill:#DB1D1D;" width="42.89" height="42.9"/>
				<rect x="966.17" y="919.09" style="fill:#DB1D1D;" width="42.89" height="42.88"/>
				<rect x="966.17" y="876.2" style="fill:#DB1D1D;" width="42.89" height="42.89"/>
				<rect x="966.17" y="833.3" style="fill:#7C1313;" width="42.89" height="42.9"/>
				<rect x="966.17" y="790.41" style="fill:#7C1313;" width="42.89" height="42.89"/>
				<rect x="966.17" y="747.52" style="fill:#7C1313;" width="42.89" height="42.89"/>
				<rect x="966.17" y="704.63" style="fill:#8C8C8C;" width="42.89" height="42.89"/>
				<rect x="966.17" y="661.74" style="fill:#FFFFFF;" width="42.89" height="42.89"/>
				<rect x="923.28" y="1176.44" style="fill:#FFFFFF;" width="42.89" height="42.88"/>
				<rect x="923.28" y="1133.55" style="fill:#CCCCCC;" width="42.89" height="42.89"/>
				<rect x="923.28" y="1090.65" style="fill:#601111;" width="42.89" height="42.9"/>
				<rect x="923.28" y="1047.76" style="fill:#9B1616;" width="42.89" height="42.89"/>
				<rect x="923.28" y="1004.87" style="fill:#DB1D1D;" width="42.89" height="42.89"/>
				<rect x="923.28" y="961.97" style="fill:#DB1D1D;" width="42.89" height="42.9"/>
				<rect x="923.28" y="919.09" style="fill:#7C1313;" width="42.89" height="42.88"/>
				<rect x="923.28" y="876.2" style="fill:#7C1313;" width="42.89" height="42.89"/>
				<rect x="923.28" y="833.3" style="fill:#DB1D1D;" width="42.89" height="42.9"/>
				<rect x="923.28" y="790.41" style="fill:#ED3232;" width="42.89" height="42.89"/>
				<rect x="923.28" y="747.52" style="fill:#7C1313;" width="42.89" height="42.89"/>
				<rect x="923.28" y="704.63" style="fill:#8C8C8C;" width="42.89" height="42.89"/>
				<rect x="880.39" y="1176.44" style="fill:#FFFFFF;" width="42.89" height="42.88"/>
				<rect x="880.39" y="1133.55" style="fill:#FFFFFF;" width="42.89" height="42.89"/>
				<rect x="880.39" y="1090.65" style="fill:#601111;" width="42.89" height="42.9"/>
				<rect x="880.39" y="1047.76" style="fill:#7C1313;" width="42.89" height="42.89"/>
				<rect x="880.39" y="1004.87" style="fill:#7C1313;" width="42.89" height="42.89"/>
				<rect x="880.39" y="961.97" style="fill:#7C1313;" width="42.89" height="42.9"/>
				<rect x="880.39" y="919.09" style="fill:#DB1D1D;" width="42.89" height="42.88"/>
				<rect x="880.39" y="876.2" style="fill:#DB1D1D;" width="42.89" height="42.89"/>
				<rect x="880.39" y="833.3" style="fill:#ED3232;" width="42.89" height="42.9"/>
				<rect x="880.39" y="790.41" style="fill:#7C1313;" width="42.89" height="42.89"/>
				<rect x="880.39" y="747.52" style="fill:#ED3232;" width="42.89" height="42.89"/>
				<rect x="837.5" y="1176.44" style="fill:#FFFFFF;" width="42.89" height="42.88"/>
				<rect x="837.5" y="1133.55" style="fill:#CCCCCC;" width="42.89" height="42.89"/>
				<rect x="837.5" y="1090.65" style="fill:#601111;" width="42.89" height="42.9"/>
				<rect x="837.5" y="1047.76" style="fill:#9B1616;" width="42.89" height="42.89"/>
				<rect x="837.5" y="1004.87" style="fill:#DB1D1D;" width="42.89" height="42.89"/>
				<rect x="837.5" y="961.97" style="fill:#DB1D1D;" width="42.89" height="42.9"/>
				<rect x="837.5" y="919.09" style="fill:#DB1D1D;" width="42.89" height="42.88"/>
				<rect x="837.5" y="876.2" style="fill:#ED3232;" width="42.89" height="42.89"/>
				<rect x="837.5" y="833.3" style="fill:#7C1313;" width="42.89" height="42.9"/>
				<rect x="837.5" y="790.41" style="fill:#DB1D1D;" width="42.89" height="42.89"/>
				<rect x="794.6" y="1176.44" style="fill:#FFFFFF;" width="42.9" height="42.88"/>
				<rect x="794.6" y="1133.55" style="fill:#FFFFFF;" width="42.9" height="42.89"/>
				<rect x="794.6" y="1090.65" style="fill:#601111;" width="42.9" height="42.9"/>
				<rect x="794.6" y="1047.76" style="fill:#9B1616;" width="42.9" height="42.89"/>
				<rect x="794.6" y="1004.87" style="fill:#DB1D1D;" width="42.9" height="42.89"/>
				<rect x="794.6" y="961.97" style="fill:#ED3232;" width="42.9" height="42.9"/>
				<rect x="794.6" y="919.09" style="fill:#7C1313;" width="42.9" height="42.88"/>
				<rect x="794.6" y="876.2" style="fill:#7C1313;" width="42.9" height="42.89"/>
				<rect x="794.6" y="833.3" style="fill:#DB1D1D;" width="42.9" height="42.9"/>
				<rect x="794.6" y="790.41" style="fill:#ED3232;" width="42.9" height="42.89"/>
				<rect x="751.71" y="1176.44" style="fill:#FFFFFF;" width="42.89" height="42.88"/>
				<rect x="751.71" y="1133.55" style="fill:#FFFFFF;" width="42.89" height="42.89"/>
				<rect x="751.71" y="1090.65" style="fill:#601111;" width="42.89" height="42.9"/>
				<rect x="751.71" y="1047.76" style="fill:#7C1313;" width="42.89" height="42.89"/>
				<rect x="751.71" y="1004.87" style="fill:#7C1313;" width="42.89" height="42.89"/>
				<rect x="751.71" y="961.97" style="fill:#7C1313;" width="42.89" height="42.9"/>
				<rect x="751.71" y="919.09" style="fill:#DB1D1D;" width="42.89" height="42.88"/>
				<rect x="751.71" y="876.2" style="fill:#DB1D1D;" width="42.89" height="42.89"/>
				<rect x="751.71" y="833.3" style="fill:#ED3232;" width="42.89" height="42.9"/>
				<rect x="708.82" y="1176.44" style="fill:#FFFFFF;" width="42.89" height="42.88"/>
				<rect x="708.82" y="1133.55" style="fill:#FFFFFF;" width="42.89" height="42.89"/>
				<rect x="708.82" y="1090.65" style="fill:#601111;" width="42.89" height="42.9"/>
				<rect x="708.82" y="1047.76" style="fill:#9B1616;" width="42.89" height="42.89"/>
				<rect x="708.82" y="1004.87" style="fill:#DB1D1D;" width="42.89" height="42.89"/>
				<rect x="708.82" y="961.97" style="fill:#DB1D1D;" width="42.89" height="42.9"/>
				<rect x="708.82" y="919.09" style="fill:#DB1D1D;" width="42.89" height="42.88"/>
				<rect x="708.82" y="876.2" style="fill:#ED3232;" width="42.89" height="42.89"/>
				<rect x="665.93" y="1176.44" style="fill:#FFFFFF;" width="42.89" height="42.88"/>
				<rect x="665.93" y="1133.55" style="fill:#FFFFFF;" width="42.89" height="42.89"/>
				<rect x="665.93" y="1090.65" style="fill:#601111;" width="42.89" height="42.9"/>
				<rect x="665.93" y="1047.76" style="fill:#9B1616;" width="42.89" height="42.89"/>
				<rect x="665.93" y="1004.87" style="fill:#DB1D1D;" width="42.89" height="42.89"/>
				<rect x="665.93" y="961.97" style="fill:#ED3232;" width="42.89" height="42.9"/>
				<rect x="623.04" y="1133.55" style="fill:#FFFFFF;" width="42.89" height="42.89"/>
				<rect x="623.04" y="1090.65" style="fill:#601111;" width="42.89" height="42.9"/>
			</g>
		</g>
	</g>
</g>
</svg>
