<?xml version="1.0" encoding="utf-8"?>
<!-- Generator: Adobe Illustrator 27.5.0, SVG Export Plug-In . SVG Version: 6.00 Build 0)  -->
<svg version="1.1" xmlns="http://www.w3.org/2000/svg" xmlns:xlink="http://www.w3.org/1999/xlink" x="0px" y="0px"
	 viewBox="0 0 4000 4000" style="enable-background:new 0 0 4000 4000;" xml:space="preserve">
<g id="Background">
	<rect style="fill:#60CEF4;" width="4000" height="4000"/>
</g>
<g id="Design" shape-rendering="crispEdges">
	<g>
		<rect x="1699.25" y="947.375" style="fill:#1F1F1F;" width="100.25" height="100.25"/>
		<rect x="1799.5" y="947.375" style="fill:#1F1F1F;" width="100.25" height="100.25"/>
		<rect x="1899.75" y="947.375" style="fill:#1F1F1F;" width="100.25" height="100.25"/>
		<rect x="2000" y="947.375" style="fill:#1F1F1F;" width="100.25" height="100.25"/>
		<rect x="2100.25" y="947.375" style="fill:#1F1F1F;" width="100.25" height="100.25"/>
		<rect x="2200.5" y="947.375" style="fill:#1F1F1F;" width="100.25" height="100.25"/>
		<rect x="1599" y="1047.625" style="fill:#1F1F1F;" width="100.25" height="100.25"/>
		<rect x="1699.25" y="1047.625" style="fill:#695D91;" width="100.25" height="100.25"/>
		<rect x="1799.5" y="1047.625" style="fill:#695D91;" width="100.25" height="100.25"/>
		<rect x="1899.75" y="1047.625" style="fill:#695D91;" width="100.25" height="100.25"/>
		<rect x="2000" y="1047.625" style="fill:#695D91;" width="100.25" height="100.25"/>
		<rect x="2100.25" y="1047.625" style="fill:#695D91;" width="100.25" height="100.25"/>
		<rect x="2200.5" y="1047.625" style="fill:#695D91;" width="100.25" height="100.25"/>
		<rect x="2300.75" y="1047.625" style="fill:#1F1F1F;" width="100.25" height="100.25"/>
		<rect x="1498.75" y="1147.875" style="fill:#1F1F1F;" width="100.25" height="100.25"/>
		<rect x="1599" y="1147.875" style="fill:#695D91;" width="100.25" height="100.25"/>
		<rect x="1699.25" y="1147.875" style="fill:#695D91;" width="100.25" height="100.25"/>
		<rect x="1799.5" y="1147.875" style="fill:#332C4E;" width="100.25" height="100.25"/>
		<rect x="1899.75" y="1147.875" style="fill:#332C4E;" width="100.25" height="100.25"/>
		<rect x="2000" y="1147.875" style="fill:#332C4E;" width="100.25" height="100.25"/>
		<rect x="2100.25" y="1147.875" style="fill:#332C4E;" width="100.25" height="100.25"/>
		<rect x="2200.5" y="1147.875" style="fill:#695D91;" width="100.25" height="100.25"/>
		<rect x="2300.75" y="1147.875" style="fill:#695D91;" width="100.25" height="100.25"/>
		<rect x="2401" y="1147.875" style="fill:#1F1F1F;" width="100.25" height="100.25"/>
		<rect x="1498.75" y="1248.125" style="fill:#1F1F1F;" width="100.25" height="100.25"/>
		<rect x="1599" y="1248.125" style="fill:#695D91;" width="100.25" height="100.25"/>
		<rect x="1699.25" y="1248.125" style="fill:#332C4E;" width="100.25" height="100.25"/>
		<rect x="1799.5" y="1248.125" style="fill:#332C4E;" width="100.25" height="100.25"/>
		<rect x="1899.75" y="1248.125" style="fill:#332C4E;" width="100.25" height="100.25"/>
		<rect x="2000" y="1248.125" style="fill:#332C4E;" width="100.25" height="100.25"/>
		<rect x="2100.25" y="1248.125" style="fill:#332C4E;" width="100.25" height="100.25"/>
		<rect x="2200.5" y="1248.125" style="fill:#332C4E;" width="100.25" height="100.25"/>
		<rect x="2300.75" y="1248.125" style="fill:#695D91;" width="100.25" height="100.25"/>
		<rect x="2401" y="1248.125" style="fill:#1F1F1F;" width="100.25" height="100.25"/>
		<rect x="1398.5" y="1348.375" style="fill:#1F1F1F;" width="100.25" height="100.25"/>
		<rect x="1498.75" y="1348.375" style="fill:#695D91;" width="100.25" height="100.25"/>
		<rect x="1599" y="1348.375" style="fill:#695D91;" width="100.25" height="100.25"/>
		<rect x="1699.25" y="1348.375" style="fill:#332C4E;" width="100.25" height="100.25"/>
		<rect x="1799.5" y="1348.375" style="fill:#332C4E;" width="100.25" height="100.25"/>
		<rect x="1899.75" y="1348.375" style="fill:#332C4E;" width="100.25" height="100.25"/>
		<rect x="2000" y="1348.375" style="fill:#332C4E;" width="100.25" height="100.25"/>
		<rect x="2100.25" y="1348.375" style="fill:#332C4E;" width="100.25" height="100.25"/>
		<rect x="2200.5" y="1348.375" style="fill:#332C4E;" width="100.25" height="100.25"/>
		<rect x="2300.75" y="1348.375" style="fill:#695D91;" width="100.25" height="100.25"/>
		<rect x="2401" y="1348.375" style="fill:#695D91;" width="100.25" height="100.25"/>
		<rect x="2501.25" y="1348.375" style="fill:#1F1F1F;" width="100.25" height="100.25"/>
		<rect x="1398.5" y="1448.625" style="fill:#1F1F1F;" width="100.25" height="100.25"/>
		<rect x="1498.75" y="1448.625" style="fill:#695D91;" width="100.25" height="100.25"/>
		<rect x="1599" y="1448.625" style="fill:#332C4E;" width="100.25" height="100.25"/>
		<rect x="1699.25" y="1448.625" style="fill:#332C4E;" width="100.25" height="100.25"/>
		<rect x="1799.5" y="1448.625" style="fill:#332C4E;" width="100.25" height="100.25"/>
		<rect x="1899.75" y="1448.625" style="fill:#332C4E;" width="100.25" height="100.25"/>
		<rect x="2000" y="1448.625" style="fill:#332C4E;" width="100.25" height="100.25"/>
		<rect x="2100.25" y="1448.625" style="fill:#332C4E;" width="100.25" height="100.25"/>
		<rect x="2200.5" y="1448.625" style="fill:#332C4E;" width="100.25" height="100.25"/>
		<rect x="2300.75" y="1448.625" style="fill:#332C4E;" width="100.25" height="100.25"/>
		<rect x="2401" y="1448.625" style="fill:#695D91;" width="100.25" height="100.25"/>
		<rect x="2501.25" y="1448.625" style="fill:#1F1F1F;" width="100.25" height="100.25"/>
		<rect x="1398.5" y="1548.875" style="fill:#1F1F1F;" width="100.25" height="100.25"/>
		<rect x="1498.75" y="1548.875" style="fill:#332C4E;" width="100.25" height="100.25"/>
		<rect x="1599" y="1548.875" style="fill:#332C4E;" width="100.25" height="100.25"/>
		<rect x="1699.25" y="1548.875" style="fill:#332C4E;" width="100.25" height="100.25"/>
		<rect x="1799.5" y="1548.875" style="fill:#332C4E;" width="100.25" height="100.25"/>
		<rect x="1899.75" y="1548.875" style="fill:#332C4E;" width="100.25" height="100.25"/>
		<rect x="2000" y="1548.875" style="fill:#332C4E;" width="100.25" height="100.25"/>
		<rect x="2100.25" y="1548.875" style="fill:#332C4E;" width="100.25" height="100.25"/>
		<rect x="2200.5" y="1548.875" style="fill:#332C4E;" width="100.25" height="100.25"/>
		<rect x="2300.75" y="1548.875" style="fill:#332C4E;" width="100.25" height="100.25"/>
		<rect x="2401" y="1548.875" style="fill:#332C4E;" width="100.25" height="100.25"/>
		<rect x="2501.25" y="1548.875" style="fill:#1F1F1F;" width="100.25" height="100.25"/>
		<rect x="1298.25" y="1649.125" style="fill:#1F1F1F;" width="100.25" height="100.25"/>
		<rect x="1398.5" y="1649.125" style="fill:#332C4E;" width="100.25" height="100.25"/>
		<rect x="1498.75" y="1649.125" style="fill:#332C4E;" width="100.25" height="100.25"/>
		<rect x="1599" y="1649.125" style="fill:#332C4E;" width="100.25" height="100.25"/>
		<rect x="1699.25" y="1649.125" style="fill:#332C4E;" width="100.25" height="100.25"/>
		<rect x="1799.5" y="1649.125" style="fill:#332C4E;" width="100.25" height="100.25"/>
		<rect x="1899.75" y="1649.125" style="fill:#332C4E;" width="100.25" height="100.25"/>
		<rect x="2000" y="1649.125" style="fill:#332C4E;" width="100.25" height="100.25"/>
		<rect x="2100.25" y="1649.125" style="fill:#332C4E;" width="100.25" height="100.25"/>
		<rect x="2200.5" y="1649.125" style="fill:#332C4E;" width="100.25" height="100.25"/>
		<rect x="2300.75" y="1649.125" style="fill:#332C4E;" width="100.25" height="100.25"/>
		<rect x="2401" y="1649.125" style="fill:#332C4E;" width="100.25" height="100.25"/>
		<rect x="2501.25" y="1649.125" style="fill:#332C4E;" width="100.25" height="100.25"/>
		<rect x="2601.5" y="1649.125" style="fill:#1F1F1F;" width="100.25" height="100.25"/>
		<rect x="1298.25" y="1749.375" style="fill:#1F1F1F;" width="100.25" height="100.25"/>
		<rect x="1398.5" y="1749.375" style="fill:#332C4E;" width="100.25" height="100.25"/>
		<rect x="1498.75" y="1749.375" style="fill:#332C4E;" width="100.25" height="100.25"/>
		<rect x="1599" y="1749.375" style="fill:#332C4E;" width="100.25" height="100.25"/>
		<rect x="1699.25" y="1749.375" style="fill:#332C4E;" width="100.25" height="100.25"/>
		<rect x="1799.5" y="1749.375" style="fill:#332C4E;" width="100.25" height="100.25"/>
		<rect x="1899.75" y="1749.375" style="fill:#332C4E;" width="100.25" height="100.25"/>
		<rect x="2000" y="1749.375" style="fill:#332C4E;" width="100.25" height="100.25"/>
		<rect x="2100.25" y="1749.375" style="fill:#332C4E;" width="100.25" height="100.25"/>
		<rect x="2200.5" y="1749.375" style="fill:#332C4E;" width="100.25" height="100.25"/>
		<rect x="2300.75" y="1749.375" style="fill:#332C4E;" width="100.25" height="100.25"/>
		<rect x="2401" y="1749.375" style="fill:#332C4E;" width="100.25" height="100.25"/>
		<rect x="2501.25" y="1749.375" style="fill:#332C4E;" width="100.25" height="100.25"/>
		<rect x="2601.5" y="1749.375" style="fill:#1F1F1F;" width="100.25" height="100.25"/>
		<rect x="1298.25" y="1849.625" style="fill:#1F1F1F;" width="100.25" height="100.25"/>
		<rect x="1398.5" y="1849.625" style="fill:#292146;" width="100.25" height="100.25"/>
		<rect x="1498.75" y="1849.625" style="fill:#332C4E;" width="100.25" height="100.25"/>
		<rect x="1599" y="1849.625" style="fill:#332C4E;" width="100.25" height="100.25"/>
		<rect x="1699.25" y="1849.625" style="fill:#332C4E;" width="100.25" height="100.25"/>
		<rect x="1799.5" y="1849.625" style="fill:#332C4E;" width="100.25" height="100.25"/>
		<rect x="1899.75" y="1849.625" style="fill:#332C4E;" width="100.25" height="100.25"/>
		<rect x="2000" y="1849.625" style="fill:#332C4E;" width="100.25" height="100.25"/>
		<rect x="2100.25" y="1849.625" style="fill:#332C4E;" width="100.25" height="100.25"/>
		<rect x="2200.5" y="1849.625" style="fill:#332C4E;" width="100.25" height="100.25"/>
		<rect x="2300.75" y="1849.625" style="fill:#332C4E;" width="100.25" height="100.25"/>
		<rect x="2401" y="1849.625" style="fill:#332C4E;" width="100.25" height="100.25"/>
		<rect x="2501.25" y="1849.625" style="fill:#292146;" width="100.25" height="100.25"/>
		<rect x="2601.5" y="1849.625" style="fill:#1F1F1F;" width="100.25" height="100.25"/>
		<rect x="1298.25" y="1949.875" style="fill:#1F1F1F;" width="100.25" height="100.25"/>
		<rect x="1398.5" y="1949.875" style="fill:#292146;" width="100.25" height="100.25"/>
		<rect x="1498.75" y="1949.875" style="fill:#292146;" width="100.25" height="100.25"/>
		<rect x="1599" y="1949.875" style="fill:#332C4E;" width="100.25" height="100.25"/>
		<rect x="1699.25" y="1949.875" style="fill:#292146;" width="100.25" height="100.25"/>
		<rect x="1799.5" y="1949.875" style="fill:#292146;" width="100.25" height="100.25"/>
		<rect x="1899.75" y="1949.875" style="fill:#292146;" width="100.25" height="100.25"/>
		<rect x="2000" y="1949.875" style="fill:#292146;" width="100.25" height="100.25"/>
		<rect x="2100.25" y="1949.875" style="fill:#292146;" width="100.25" height="100.25"/>
		<rect x="2200.5" y="1949.875" style="fill:#292146;" width="100.25" height="100.25"/>
		<rect x="2300.75" y="1949.875" style="fill:#332C4E;" width="100.25" height="100.25"/>
		<rect x="2401" y="1949.875" style="fill:#292146;" width="100.25" height="100.25"/>
		<rect x="2501.25" y="1949.875" style="fill:#292146;" width="100.25" height="100.25"/>
		<rect x="2601.5" y="1949.875" style="fill:#1F1F1F;" width="100.25" height="100.25"/>
		<rect x="1198" y="2050.125" style="fill:#1F1F1F;" width="100.25" height="100.25"/>
		<rect x="1298.25" y="2050.125" style="fill:#FFCC80;" width="100.25" height="100.25"/>
		<rect x="1398.5" y="2050.125" style="fill:#1F1F1F;" width="100.25" height="100.25"/>
		<rect x="1498.75" y="2050.125" style="fill:#292146;" width="100.25" height="100.25"/>
		<rect x="1599" y="2050.125" style="fill:#292146;" width="100.25" height="100.25"/>
		<rect x="1699.25" y="2050.125" style="fill:#1F1F1F;" width="100.25" height="100.25"/>
		<rect x="1799.5" y="2050.125" style="fill:#1F1F1F;" width="100.25" height="100.25"/>
		<rect x="1899.75" y="2050.125" style="fill:#1F1F1F;" width="100.25" height="100.25"/>
		<rect x="2000" y="2050.125" style="fill:#1F1F1F;" width="100.25" height="100.25"/>
		<rect x="2100.25" y="2050.125" style="fill:#1F1F1F;" width="100.25" height="100.25"/>
		<rect x="2200.5" y="2050.125" style="fill:#1F1F1F;" width="100.25" height="100.25"/>
		<rect x="2300.75" y="2050.125" style="fill:#292146;" width="100.25" height="100.25"/>
		<rect x="2401" y="2050.125" style="fill:#292146;" width="100.25" height="100.25"/>
		<rect x="2501.25" y="2050.125" style="fill:#1F1F1F;" width="100.25" height="100.25"/>
		<rect x="2601.5" y="2050.125" style="fill:#FFCC80;" width="100.25" height="100.25"/>
		<rect x="2701.75" y="2050.125" style="fill:#1F1F1F;" width="100.25" height="100.25"/>
		<rect x="997.5" y="2150.375" style="fill:#1F1F1F;" width="100.25" height="100.25"/>
		<rect x="1097.75" y="2150.375" style="fill:#1F1F1F;" width="100.25" height="100.25"/>
		<rect x="1198" y="2150.375" style="fill:#1F1F1F;" width="100.25" height="100.25"/>
		<rect x="1298.25" y="2150.375" style="fill:#E97526;" width="100.25" height="100.25"/>
		<rect x="1398.5" y="2150.375" style="fill:#FFCC80;" width="100.25" height="100.25"/>
		<rect x="1498.75" y="2150.375" style="fill:#1F1F1F;" width="100.25" height="100.25"/>
		<rect x="1599" y="2150.375" style="fill:#1F1F1F;" width="100.25" height="100.25"/>
		<rect x="1699.25" y="2150.375" style="fill:#FFE082;" width="100.25" height="100.25"/>
		<rect x="1799.5" y="2150.375" style="fill:#FFE082;" width="100.25" height="100.25"/>
		<rect x="1899.75" y="2150.375" style="fill:#FFE082;" width="100.25" height="100.25"/>
		<rect x="2000" y="2150.375" style="fill:#FFE082;" width="100.25" height="100.25"/>
		<rect x="2100.25" y="2150.375" style="fill:#FFE082;" width="100.25" height="100.25"/>
		<rect x="2200.5" y="2150.375" style="fill:#FFE082;" width="100.25" height="100.25"/>
		<rect x="2300.75" y="2150.375" style="fill:#1F1F1F;" width="100.25" height="100.25"/>
		<rect x="2401" y="2150.375" style="fill:#1F1F1F;" width="100.25" height="100.25"/>
		<rect x="2501.25" y="2150.375" style="fill:#FFCC80;" width="100.25" height="100.25"/>
		<rect x="2601.5" y="2150.375" style="fill:#E97526;" width="100.25" height="100.25"/>
		<rect x="2701.75" y="2150.375" style="fill:#1F1F1F;" width="100.25" height="100.25"/>
		<rect x="2802" y="2150.375" style="fill:#1F1F1F;" width="100.25" height="100.25"/>
		<rect x="2902.25" y="2150.375" style="fill:#1F1F1F;" width="100.25" height="100.25"/>
		<rect x="897.25" y="2250.625" style="fill:#1F1F1F;" width="100.25" height="100.25"/>
		<rect x="997.5" y="2250.625" style="fill:#292146;" width="100.25" height="100.25"/>
		<rect x="1097.75" y="2250.625" style="fill:#292146;" width="100.25" height="100.25"/>
		<rect x="1198" y="2250.625" style="fill:#1F1F1F;" width="100.25" height="100.25"/>
		<rect x="1298.25" y="2250.625" style="fill:#F4511E;" width="100.25" height="100.25"/>
		<rect x="1398.5" y="2250.625" style="fill:#E97526;" width="100.25" height="100.25"/>
		<rect x="1498.75" y="2250.625" style="fill:#FFCC80;" width="100.25" height="100.25"/>
		<rect x="1599" y="2250.625" style="fill:#1F1F1F;" width="100.25" height="100.25"/>
		<rect x="1699.25" y="2250.625" style="fill:#FFA726;" width="100.25" height="100.25"/>
		<rect x="1799.5" y="2250.625" style="fill:#1F1F1F;" width="100.25" height="100.25"/>
		<rect x="1899.75" y="2250.625" style="fill:#1F1F1F;" width="100.25" height="100.25"/>
		<rect x="2000" y="2250.625" style="fill:#1F1F1F;" width="100.25" height="100.25"/>
		<rect x="2100.25" y="2250.625" style="fill:#1F1F1F;" width="100.25" height="100.25"/>
		<rect x="2200.5" y="2250.625" style="fill:#FFA726;" width="100.25" height="100.25"/>
		<rect x="2300.75" y="2250.625" style="fill:#1F1F1F;" width="100.25" height="100.25"/>
		<rect x="2401" y="2250.625" style="fill:#FFCC80;" width="100.25" height="100.25"/>
		<rect x="2501.25" y="2250.625" style="fill:#E97526;" width="100.25" height="100.25"/>
		<rect x="2601.5" y="2250.625" style="fill:#F4511E;" width="100.25" height="100.25"/>
		<rect x="2701.75" y="2250.625" style="fill:#1F1F1F;" width="100.25" height="100.25"/>
		<rect x="2802" y="2250.625" style="fill:#292146;" width="100.25" height="100.25"/>
		<rect x="2902.25" y="2250.625" style="fill:#292146;" width="100.25" height="100.25"/>
		<rect x="3002.5" y="2250.625" style="fill:#1F1F1F;" width="100.25" height="100.25"/>
		<rect x="797" y="2350.875" style="fill:#1F1F1F;" width="100.25" height="100.25"/>
		<rect x="897.25" y="2350.875" style="fill:#332C4E;" width="100.25" height="100.25"/>
		<rect x="997.5" y="2350.875" style="fill:#332C4E;" width="100.25" height="100.25"/>
		<rect x="1097.75" y="2350.875" style="fill:#292146;" width="100.25" height="100.25"/>
		<rect x="1198" y="2350.875" style="fill:#1F1F1F;" width="100.25" height="100.25"/>
		<rect x="1298.25" y="2350.875" style="fill:#F4511E;" width="100.25" height="100.25"/>
		<rect x="1398.5" y="2350.875" style="fill:#F4511E;" width="100.25" height="100.25"/>
		<rect x="1498.75" y="2350.875" style="fill:#E97526;" width="100.25" height="100.25"/>
		<rect x="1599" y="2350.875" style="fill:#1F1F1F;" width="100.25" height="100.25"/>
		<rect x="1699.25" y="2350.875" style="fill:#FFA726;" width="100.25" height="100.25"/>
		<rect x="1799.5" y="2350.875" style="fill:#1F1F1F;" width="100.25" height="100.25"/>
		<rect x="1899.75" y="2350.875" style="fill:#1F1F1F;" width="100.25" height="100.25"/>
		<rect x="2000" y="2350.875" style="fill:#1F1F1F;" width="100.25" height="100.25"/>
		<rect x="2100.25" y="2350.875" style="fill:#1F1F1F;" width="100.25" height="100.25"/>
		<rect x="2200.5" y="2350.875" style="fill:#FFA726;" width="100.25" height="100.25"/>
		<rect x="2300.75" y="2350.875" style="fill:#1F1F1F;" width="100.25" height="100.25"/>
		<rect x="2401" y="2350.875" style="fill:#E97526;" width="100.25" height="100.25"/>
		<rect x="2501.25" y="2350.875" style="fill:#F4511E;" width="100.25" height="100.25"/>
		<rect x="2601.5" y="2350.875" style="fill:#F4511E;" width="100.25" height="100.25"/>
		<rect x="2701.75" y="2350.875" style="fill:#1F1F1F;" width="100.25" height="100.25"/>
		<rect x="2802" y="2350.875" style="fill:#292146;" width="100.25" height="100.25"/>
		<rect x="2902.25" y="2350.875" style="fill:#332C4E;" width="100.25" height="100.25"/>
		<rect x="3002.5" y="2350.875" style="fill:#332C4E;" width="100.25" height="100.25"/>
		<rect x="3102.75" y="2350.875" style="fill:#1F1F1F;" width="100.25" height="100.25"/>
		<rect x="797" y="2451.125" style="fill:#1F1F1F;" width="100.25" height="100.25"/>
		<rect x="897.25" y="2451.125" style="fill:#332C4E;" width="100.25" height="100.25"/>
		<rect x="997.5" y="2451.125" style="fill:#332C4E;" width="100.25" height="100.25"/>
		<rect x="1097.75" y="2451.125" style="fill:#332C4E;" width="100.25" height="100.25"/>
		<rect x="1198" y="2451.125" style="fill:#292146;" width="100.25" height="100.25"/>
		<rect x="1298.25" y="2451.125" style="fill:#1F1F1F;" width="100.25" height="100.25"/>
		<rect x="1398.5" y="2451.125" style="fill:#1F1F1F;" width="100.25" height="100.25"/>
		<rect x="1498.75" y="2451.125" style="fill:#F4511E;" width="100.25" height="100.25"/>
		<rect x="1599" y="2451.125" style="fill:#1F1F1F;" width="100.25" height="100.25"/>
		<rect x="1699.25" y="2451.125" style="fill:#FB8C00;" width="100.25" height="100.25"/>
		<rect x="1799.5" y="2451.125" style="fill:#1F1F1F;" width="100.25" height="100.25"/>
		<rect x="1899.75" y="2451.125" style="fill:#1F1F1F;" width="100.25" height="100.25"/>
		<rect x="2000" y="2451.125" style="fill:#1F1F1F;" width="100.25" height="100.25"/>
		<rect x="2100.25" y="2451.125" style="fill:#1F1F1F;" width="100.25" height="100.25"/>
		<rect x="2200.5" y="2451.125" style="fill:#FB8C00;" width="100.25" height="100.25"/>
		<rect x="2300.75" y="2451.125" style="fill:#1F1F1F;" width="100.25" height="100.25"/>
		<rect x="2401" y="2451.125" style="fill:#F4511E;" width="100.25" height="100.25"/>
		<rect x="2501.25" y="2451.125" style="fill:#1F1F1F;" width="100.25" height="100.25"/>
		<rect x="2601.5" y="2451.125" style="fill:#1F1F1F;" width="100.25" height="100.25"/>
		<rect x="2701.75" y="2451.125" style="fill:#292146;" width="100.25" height="100.25"/>
		<rect x="2802" y="2451.125" style="fill:#332C4E;" width="100.25" height="100.25"/>
		<rect x="2902.25" y="2451.125" style="fill:#332C4E;" width="100.25" height="100.25"/>
		<rect x="3002.5" y="2451.125" style="fill:#332C4E;" width="100.25" height="100.25"/>
		<rect x="3102.75" y="2451.125" style="fill:#1F1F1F;" width="100.25" height="100.25"/>
		<rect x="797" y="2551.375" style="fill:#1F1F1F;" width="100.25" height="100.25"/>
		<rect x="897.25" y="2551.375" style="fill:#695D91;" width="100.25" height="100.25"/>
		<rect x="997.5" y="2551.375" style="fill:#332C4E;" width="100.25" height="100.25"/>
		<rect x="1097.75" y="2551.375" style="fill:#332C4E;" width="100.25" height="100.25"/>
		<rect x="1198" y="2551.375" style="fill:#332C4E;" width="100.25" height="100.25"/>
		<rect x="1298.25" y="2551.375" style="fill:#292146;" width="100.25" height="100.25"/>
		<rect x="1398.5" y="2551.375" style="fill:#292146;" width="100.25" height="100.25"/>
		<rect x="1498.75" y="2551.375" style="fill:#1F1F1F;" width="100.25" height="100.25"/>
		<rect x="1599" y="2551.375" style="fill:#1F1F1F;" width="100.25" height="100.25"/>
		<rect x="1699.25" y="2551.375" style="fill:#FB8C00;" width="100.25" height="100.25"/>
		<rect x="1799.5" y="2551.375" style="fill:#FB8C00;" width="100.25" height="100.25"/>
		<rect x="1899.75" y="2551.375" style="fill:#FB8C00;" width="100.25" height="100.25"/>
		<rect x="2000" y="2551.375" style="fill:#FB8C00;" width="100.25" height="100.25"/>
		<rect x="2100.25" y="2551.375" style="fill:#FB8C00;" width="100.25" height="100.25"/>
		<rect x="2200.5" y="2551.375" style="fill:#FB8C00;" width="100.25" height="100.25"/>
		<rect x="2300.75" y="2551.375" style="fill:#1F1F1F;" width="100.25" height="100.25"/>
		<rect x="2401" y="2551.375" style="fill:#1F1F1F;" width="100.25" height="100.25"/>
		<rect x="2501.25" y="2551.375" style="fill:#292146;" width="100.25" height="100.25"/>
		<rect x="2601.5" y="2551.375" style="fill:#292146;" width="100.25" height="100.25"/>
		<rect x="2701.75" y="2551.375" style="fill:#332C4E;" width="100.25" height="100.25"/>
		<rect x="2802" y="2551.375" style="fill:#332C4E;" width="100.25" height="100.25"/>
		<rect x="2902.25" y="2551.375" style="fill:#332C4E;" width="100.25" height="100.25"/>
		<rect x="3002.5" y="2551.375" style="fill:#695D91;" width="100.25" height="100.25"/>
		<rect x="3102.75" y="2551.375" style="fill:#1F1F1F;" width="100.25" height="100.25"/>
		<rect x="897.25" y="2651.625" style="fill:#1F1F1F;" width="100.25" height="100.25"/>
		<rect x="997.5" y="2651.625" style="fill:#695D91;" width="100.25" height="100.25"/>
		<rect x="1097.75" y="2651.625" style="fill:#695D91;" width="100.25" height="100.25"/>
		<rect x="1198" y="2651.625" style="fill:#332C4E;" width="100.25" height="100.25"/>
		<rect x="1298.25" y="2651.625" style="fill:#332C4E;" width="100.25" height="100.25"/>
		<rect x="1398.5" y="2651.625" style="fill:#332C4E;" width="100.25" height="100.25"/>
		<rect x="1498.75" y="2651.625" style="fill:#292146;" width="100.25" height="100.25"/>
		<rect x="1599" y="2651.625" style="fill:#292146;" width="100.25" height="100.25"/>
		<rect x="1699.25" y="2651.625" style="fill:#1F1F1F;" width="100.25" height="100.25"/>
		<rect x="1799.5" y="2651.625" style="fill:#1F1F1F;" width="100.25" height="100.25"/>
		<rect x="1899.75" y="2651.625" style="fill:#1F1F1F;" width="100.25" height="100.25"/>
		<rect x="2000" y="2651.625" style="fill:#1F1F1F;" width="100.25" height="100.25"/>
		<rect x="2100.25" y="2651.625" style="fill:#1F1F1F;" width="100.25" height="100.25"/>
		<rect x="2200.5" y="2651.625" style="fill:#1F1F1F;" width="100.25" height="100.25"/>
		<rect x="2300.75" y="2651.625" style="fill:#292146;" width="100.25" height="100.25"/>
		<rect x="2401" y="2651.625" style="fill:#292146;" width="100.25" height="100.25"/>
		<rect x="2501.25" y="2651.625" style="fill:#332C4E;" width="100.25" height="100.25"/>
		<rect x="2601.5" y="2651.625" style="fill:#332C4E;" width="100.25" height="100.25"/>
		<rect x="2701.75" y="2651.625" style="fill:#332C4E;" width="100.25" height="100.25"/>
		<rect x="2802" y="2651.625" style="fill:#695D91;" width="100.25" height="100.25"/>
		<rect x="2902.25" y="2651.625" style="fill:#695D91;" width="100.25" height="100.25"/>
		<rect x="3002.5" y="2651.625" style="fill:#1F1F1F;" width="100.25" height="100.25"/>
		<rect x="997.5" y="2751.875" style="fill:#1F1F1F;" width="100.25" height="100.25"/>
		<rect x="1097.75" y="2751.875" style="fill:#1F1F1F;" width="100.25" height="100.25"/>
		<rect x="1198" y="2751.875" style="fill:#695D91;" width="100.25" height="100.25"/>
		<rect x="1298.25" y="2751.875" style="fill:#695D91;" width="100.25" height="100.25"/>
		<rect x="1398.5" y="2751.875" style="fill:#695D91;" width="100.25" height="100.25"/>
		<rect x="1498.75" y="2751.875" style="fill:#332C4E;" width="100.25" height="100.25"/>
		<rect x="1599" y="2751.875" style="fill:#332C4E;" width="100.25" height="100.25"/>
		<rect x="1699.25" y="2751.875" style="fill:#292146;" width="100.25" height="100.25"/>
		<rect x="1799.5" y="2751.875" style="fill:#292146;" width="100.25" height="100.25"/>
		<rect x="1899.75" y="2751.875" style="fill:#292146;" width="100.25" height="100.25"/>
		<rect x="2000" y="2751.875" style="fill:#292146;" width="100.25" height="100.25"/>
		<rect x="2100.25" y="2751.875" style="fill:#292146;" width="100.25" height="100.25"/>
		<rect x="2200.5" y="2751.875" style="fill:#292146;" width="100.25" height="100.25"/>
		<rect x="2300.75" y="2751.875" style="fill:#332C4E;" width="100.25" height="100.25"/>
		<rect x="2401" y="2751.875" style="fill:#332C4E;" width="100.25" height="100.25"/>
		<rect x="2501.25" y="2751.875" style="fill:#695D91;" width="100.25" height="100.25"/>
		<rect x="2601.5" y="2751.875" style="fill:#695D91;" width="100.25" height="100.25"/>
		<rect x="2701.75" y="2751.875" style="fill:#695D91;" width="100.25" height="100.25"/>
		<rect x="2802" y="2751.875" style="fill:#1F1F1F;" width="100.25" height="100.25"/>
		<rect x="2902.25" y="2751.875" style="fill:#1F1F1F;" width="100.25" height="100.25"/>
		<rect x="1198" y="2852.125" style="fill:#1F1F1F;" width="100.25" height="100.25"/>
		<rect x="1298.25" y="2852.125" style="fill:#1F1F1F;" width="100.25" height="100.25"/>
		<rect x="1398.5" y="2852.125" style="fill:#1F1F1F;" width="100.25" height="100.25"/>
		<rect x="1498.75" y="2852.125" style="fill:#695D91;" width="100.25" height="100.25"/>
		<rect x="1599" y="2852.125" style="fill:#695D91;" width="100.25" height="100.25"/>
		<rect x="1699.25" y="2852.125" style="fill:#695D91;" width="100.25" height="100.25"/>
		<rect x="1799.5" y="2852.125" style="fill:#695D91;" width="100.25" height="100.25"/>
		<rect x="1899.75" y="2852.125" style="fill:#695D91;" width="100.25" height="100.25"/>
		<rect x="2000" y="2852.125" style="fill:#695D91;" width="100.25" height="100.25"/>
		<rect x="2100.25" y="2852.125" style="fill:#695D91;" width="100.25" height="100.25"/>
		<rect x="2200.5" y="2852.125" style="fill:#695D91;" width="100.25" height="100.25"/>
		<rect x="2300.75" y="2852.125" style="fill:#695D91;" width="100.25" height="100.25"/>
		<rect x="2401" y="2852.125" style="fill:#695D91;" width="100.25" height="100.25"/>
		<rect x="2501.25" y="2852.125" style="fill:#1F1F1F;" width="100.25" height="100.25"/>
		<rect x="2601.5" y="2852.125" style="fill:#1F1F1F;" width="100.25" height="100.25"/>
		<rect x="2701.75" y="2852.125" style="fill:#1F1F1F;" width="100.25" height="100.25"/>
		<rect x="1498.75" y="2952.375" style="fill:#1F1F1F;" width="100.25" height="100.25"/>
		<rect x="1599" y="2952.375" style="fill:#1F1F1F;" width="100.25" height="100.25"/>
		<rect x="1699.25" y="2952.375" style="fill:#1F1F1F;" width="100.25" height="100.25"/>
		<rect x="1799.5" y="2952.375" style="fill:#1F1F1F;" width="100.25" height="100.25"/>
		<rect x="1899.75" y="2952.375" style="fill:#1F1F1F;" width="100.25" height="100.25"/>
		<rect x="2000" y="2952.375" style="fill:#1F1F1F;" width="100.25" height="100.25"/>
		<rect x="2100.25" y="2952.375" style="fill:#1F1F1F;" width="100.25" height="100.25"/>
		<rect x="2200.5" y="2952.375" style="fill:#1F1F1F;" width="100.25" height="100.25"/>
		<rect x="2300.75" y="2952.375" style="fill:#1F1F1F;" width="100.25" height="100.25"/>
		<rect x="2401" y="2952.375" style="fill:#1F1F1F;" width="100.25" height="100.25"/>
	</g>
</g>
</svg>
